<svg width="63" height="62" viewBox="0 0 63 62" fill="none" xmlns="http://www.w3.org/2000/svg">
<g opacity="0.234908" filter="url(#filter0_f_0_190)">
<path fill-rule="evenodd" clip-rule="evenodd" d="M34.6475 48.8887C44.4751 48.1869 52 44.2507 52 39.5C52 34.2533 42.8218 30 31.5 30C20.1782 30 11 34.2533 11 39.5C11 44.2507 18.5249 48.1869 28.3525 48.8887C28.4264 48.9567 28.5133 49.0156 28.613 49.0621L31.0776 50.2107C31.3454 50.3355 31.6546 50.3355 31.9224 50.2107L34.387 49.0621C34.4867 49.0156 34.5736 48.9567 34.6475 48.8887Z" fill="black"/>
</g>
<path fill-rule="evenodd" clip-rule="evenodd" d="M34.8209 47.836C46.7464 46.4397 56 36.3005 56 24C56 10.7452 45.2548 0 32 0C18.7452 0 8 10.7452 8 24C8 36.3005 17.2536 46.4397 29.1791 47.836L31.2929 49.9497C31.6834 50.3403 32.3166 50.3403 32.7071 49.9497L34.8209 47.836Z" fill="#007AFF"/>
<circle r="3" transform="matrix(-1 0 0 1 32 56)" fill="#007AFF"/>
<circle cx="32" cy="24" r="10" fill="white"/>
<defs>
<filter id="filter0_f_0_190" x="0.126873" y="19.1269" width="62.7463" height="42.0506" filterUnits="userSpaceOnUse" color-interpolation-filters="sRGB">
<feFlood flood-opacity="0" result="BackgroundImageFix"/>
<feBlend mode="normal" in="SourceGraphic" in2="BackgroundImageFix" result="shape"/>
<feGaussianBlur stdDeviation="5.43656" result="effect1_foregroundBlur_0_190"/>
</filter>
</defs>
</svg>
